<svg width="1200" height="1200" viewBox="0 0 1200 1200" fill="none" xmlns="http://www.w3.org/2000/svg" role="img" aria-labelledby="title desc">
  <title id="title">Station implementation diagram square</title>
  <desc id="desc">Square marketing diagram showing multiple tenant sites flowing into one Station install and producing approved publishing outcomes.</desc>
  <defs>
    <linearGradient id="bg" x1="80" y1="80" x2="1120" y2="1120" gradientUnits="userSpaceOnUse">
      <stop stop-color="#F5F7F2"/>
      <stop offset="1" stop-color="#E8EFE2"/>
    </linearGradient>
    <linearGradient id="accent" x1="0" y1="0" x2="1" y2="1">
      <stop stop-color="#1C7C54"/>
      <stop offset="1" stop-color="#245B4A"/>
    </linearGradient>
    <filter id="shadow" x="0" y="0" width="1200" height="1200" filterUnits="userSpaceOnUse" color-interpolation-filters="sRGB">
      <feDropShadow dx="0" dy="10" stdDeviation="14" flood-color="#1E2B21" flood-opacity="0.12"/>
    </filter>
    <style>
      .eyebrow { font: 700 22px ui-sans-serif, -apple-system, BlinkMacSystemFont, "Segoe UI", sans-serif; letter-spacing: 0.14em; text-transform: uppercase; fill: #1C7C54; }
      .headline { font: 700 42px ui-sans-serif, -apple-system, BlinkMacSystemFont, "Segoe UI", sans-serif; fill: #162118; }
      .subhead { font: 400 22px ui-sans-serif, -apple-system, BlinkMacSystemFont, "Segoe UI", sans-serif; fill: #4C5A4F; }
      .small { font: 700 17px ui-sans-serif, -apple-system, BlinkMacSystemFont, "Segoe UI", sans-serif; letter-spacing: 0.08em; text-transform: uppercase; fill: #5F6C61; }
      .label { font: 700 24px ui-sans-serif, -apple-system, BlinkMacSystemFont, "Segoe UI", sans-serif; fill: #18231A; }
      .body { font: 400 18px ui-sans-serif, -apple-system, BlinkMacSystemFont, "Segoe UI", sans-serif; fill: #536156; }
      .invert { fill: #F7FBF7; }
      .invertBody { fill: #DCEADF; }
    </style>
  </defs>
  <rect width="1200" height="1200" fill="url(#bg)"/>
  <text x="90" y="100" class="eyebrow">Station Implementation</text>
  <text x="90" y="162" class="headline">One install for multiple tenant sites</text>
  <text x="90" y="198" class="subhead">Approval-first publishing without per-site CMS multiplication.</text>

  <g filter="url(#shadow)">
    <rect x="90" y="270" width="290" height="350" rx="28" fill="#FBFCFA" stroke="#D4DED0" stroke-width="2"/>
    <text x="126" y="322" class="small">Tenant Sites</text>
    <rect x="126" y="360" width="218" height="72" rx="16" fill="#EFF4EC" stroke="#D4DED0" stroke-width="2"/>
    <text x="154" y="404" class="label">Site A</text>
    <text x="154" y="427" class="body">Users + workflow</text>
    <rect x="126" y="454" width="218" height="72" rx="16" fill="#EFF4EC" stroke="#D4DED0" stroke-width="2"/>
    <text x="154" y="498" class="label">Site B</text>
    <text x="154" y="521" class="body">Users + workflow</text>
    <rect x="126" y="548" width="218" height="72" rx="16" fill="#EFF4EC" stroke="#D4DED0" stroke-width="2"/>
    <text x="154" y="592" class="label">Site C+</text>
    <text x="154" y="615" class="body">More tenants, same app</text>
  </g>

  <path d="M380 445H450" stroke="#1C7C54" stroke-width="8" stroke-linecap="round"/>
  <path d="M430 425L470 445L430 465" stroke="#1C7C54" stroke-width="8" stroke-linecap="round" stroke-linejoin="round"/>

  <g filter="url(#shadow)">
    <rect x="470" y="250" width="290" height="390" rx="32" fill="url(#accent)"/>
    <text x="506" y="312" class="small" fill="#DCEADF">Station</text>
    <text x="506" y="370" class="label invert">Single self-hosted install</text>
    <text x="506" y="400" class="body invertBody">Isolated tenants, one operational surface</text>
    <rect x="506" y="455" width="218" height="72" rx="16" fill="#F6FBF7" fill-opacity="0.14" stroke="#9FD0B5" stroke-width="1.5"/>
    <text x="536" y="499" class="label invert">Draft → Approve → Publish</text>
    <rect x="506" y="547" width="102" height="72" rx="16" fill="#F6FBF7" fill-opacity="0.14" stroke="#9FD0B5" stroke-width="1.5"/>
    <text x="527" y="591" class="small" fill="#DCEADF">Audit</text>
    <rect x="622" y="547" width="102" height="72" rx="16" fill="#F6FBF7" fill-opacity="0.14" stroke="#9FD0B5" stroke-width="1.5"/>
    <text x="634" y="591" class="small" fill="#DCEADF">Isolation</text>
  </g>

  <path d="M760 445H830" stroke="#1C7C54" stroke-width="8" stroke-linecap="round"/>
  <path d="M810 425L850 445L810 465" stroke="#1C7C54" stroke-width="8" stroke-linecap="round" stroke-linejoin="round"/>

  <g filter="url(#shadow)">
    <rect x="850" y="270" width="260" height="350" rx="28" fill="#FBFCFA" stroke="#D4DED0" stroke-width="2"/>
    <text x="886" y="322" class="small">Outcomes</text>
    <rect x="886" y="360" width="188" height="72" rx="16" fill="#EFF4EC" stroke="#D4DED0" stroke-width="2"/>
    <text x="914" y="404" class="label">Approved content</text>
    <rect x="886" y="454" width="188" height="72" rx="16" fill="#EFF4EC" stroke="#D4DED0" stroke-width="2"/>
    <text x="914" y="498" class="label">Lower ops sprawl</text>
    <rect x="886" y="548" width="188" height="72" rx="16" fill="#EFF4EC" stroke="#D4DED0" stroke-width="2"/>
    <text x="914" y="592" class="label">Better economics</text>
  </g>

  <g filter="url(#shadow)">
    <rect x="90" y="720" width="1020" height="270" rx="28" fill="#162118"/>
    <text x="130" y="786" class="small" fill="#DCEADF">Agency Angle</text>
    <text x="130" y="848" class="headline" fill="#F7FBF7">Five client sites do not need five separate CMS licenses.</text>
    <text x="130" y="894" class="subhead" fill="#DCEADF">Station multi-tenancy lets one install serve multiple isolated tenant sites, which changes both licensing math and operational overhead.</text>
  </g>
</svg>
