<svg width="1400" height="900" viewBox="0 0 1400 900" fill="none" xmlns="http://www.w3.org/2000/svg" role="img" aria-labelledby="title desc">
  <title id="title">Station implementation diagram monochrome</title>
  <desc id="desc">Monochrome implementation diagram for docs or decks.</desc>
  <defs>
    <style>
      .bg { fill: #FFFFFF; }
      .panel { fill: #FFFFFF; stroke: #1A1A1A; stroke-width: 2; }
      .dark { fill: #1A1A1A; }
      .light { fill: none; stroke: #1A1A1A; stroke-width: 6; stroke-linecap: round; stroke-linejoin: round; }
      .eyebrow { font: 700 22px ui-sans-serif, -apple-system, BlinkMacSystemFont, "Segoe UI", sans-serif; letter-spacing: 0.14em; text-transform: uppercase; fill: #1A1A1A; }
      .headline { font: 700 44px ui-sans-serif, -apple-system, BlinkMacSystemFont, "Segoe UI", sans-serif; fill: #1A1A1A; }
      .subhead { font: 400 22px ui-sans-serif, -apple-system, BlinkMacSystemFont, "Segoe UI", sans-serif; fill: #444444; }
      .small { font: 700 16px ui-sans-serif, -apple-system, BlinkMacSystemFont, "Segoe UI", sans-serif; letter-spacing: 0.08em; text-transform: uppercase; fill: #1A1A1A; }
      .label { font: 700 24px ui-sans-serif, -apple-system, BlinkMacSystemFont, "Segoe UI", sans-serif; fill: #1A1A1A; }
      .body { font: 400 18px ui-sans-serif, -apple-system, BlinkMacSystemFont, "Segoe UI", sans-serif; fill: #444444; }
      .invert { fill: #FFFFFF; }
      .invertBody { fill: #EAEAEA; }
    </style>
  </defs>
  <rect class="bg" width="1400" height="900"/>
  <text x="100" y="106" class="eyebrow">Station Implementation</text>
  <text x="100" y="170" class="headline">One install. Multiple tenant sites. Approval-first publishing.</text>
  <text x="100" y="208" class="subhead">Monochrome version for documentation, decks, or low-color print contexts.</text>

  <rect x="100" y="290" width="280" height="360" rx="24" class="panel"/>
  <text x="136" y="340" class="small">Tenant Sites</text>
  <rect x="136" y="374" width="208" height="72" rx="14" class="panel"/>
  <text x="164" y="418" class="label">Site A</text>
  <rect x="136" y="468" width="208" height="72" rx="14" class="panel"/>
  <text x="164" y="512" class="label">Site B</text>
  <rect x="136" y="562" width="208" height="72" rx="14" class="panel"/>
  <text x="164" y="606" class="label">Site C+</text>

  <path d="M380 470H450" class="light"/>
  <path d="M430 450L470 470L430 490" class="light"/>

  <rect x="470" y="250" width="460" height="440" rx="28" class="dark"/>
  <text x="514" y="314" class="small" fill="#FFFFFF">Station</text>
  <text x="514" y="374" class="headline" fill="#FFFFFF">Single self-hosted install</text>
  <text x="514" y="414" class="subhead" fill="#EAEAEA">Shared app, isolated tenants, one approval model.</text>
  <rect x="514" y="470" width="372" height="72" rx="14" fill="none" stroke="#FFFFFF" stroke-width="2"/>
  <text x="546" y="514" class="label invert">Draft → Submit → Approve → Publish</text>
  <rect x="514" y="564" width="170" height="72" rx="14" fill="none" stroke="#FFFFFF" stroke-width="2"/>
  <text x="546" y="608" class="label invert">Audit log</text>
  <rect x="716" y="564" width="170" height="72" rx="14" fill="none" stroke="#FFFFFF" stroke-width="2"/>
  <text x="738" y="608" class="label invert">Isolation</text>

  <path d="M930 470H1000" class="light"/>
  <path d="M980 450L1020 470L980 490" class="light"/>

  <rect x="1020" y="290" width="280" height="360" rx="24" class="panel"/>
  <text x="1056" y="340" class="small">Outcomes</text>
  <rect x="1056" y="374" width="208" height="72" rx="14" class="panel"/>
  <text x="1084" y="418" class="label">Approved content</text>
  <rect x="1056" y="468" width="208" height="72" rx="14" class="panel"/>
  <text x="1084" y="512" class="label">Lower ops sprawl</text>
  <rect x="1056" y="562" width="208" height="72" rx="14" class="panel"/>
  <text x="1084" y="606" class="label">Better economics</text>

  <rect x="100" y="738" width="1200" height="86" rx="20" class="dark"/>
  <text x="136" y="790" class="label invert">Agency line: 5 client CMS tenants, 1 Station install, no per-site CMS multiplier.</text>
</svg>
